<?xml version="1.0" encoding="UTF-8"?><svg xmlns="http://www.w3.org/2000/svg" xmlns:xlink="http://www.w3.org/1999/xlink" fill-opacity="1" color-rendering="auto" color-interpolation="auto" text-rendering="auto" stroke="black" stroke-linecap="square" width="603" stroke-miterlimit="10" shape-rendering="auto" stroke-opacity="1" fill="black" stroke-dasharray="none" font-weight="normal" stroke-width="1" height="196" font-family="'Dialog'" font-style="normal" stroke-linejoin="miter" font-size="12px" stroke-dashoffset="0" image-rendering="auto">
  <!--Generated by ySVG 2.5-->
  <defs id="genericDefs"/>
  <g>
    <defs id="defs1">
      <clipPath clipPathUnits="userSpaceOnUse" id="clipPath1">
        <path d="M0 0 L603 0 L603 196 L0 196 L0 0 Z"/>
      </clipPath>
      <clipPath clipPathUnits="userSpaceOnUse" id="clipPath2">
        <path d="M487 333 L1090 333 L1090 529 L487 529 L487 333 Z"/>
      </clipPath>
      <clipPath clipPathUnits="userSpaceOnUse" id="clipPath3">
        <path d="M502 364 L502 392 L602 392 L602 364 Z"/>
      </clipPath>
      <clipPath clipPathUnits="userSpaceOnUse" id="clipPath4">
        <path d="M724 348 L724 408 L824 408 L824 348 Z"/>
      </clipPath>
      <clipPath clipPathUnits="userSpaceOnUse" id="clipPath5">
        <path d="M724 486 L724 514 L824 514 L824 486 Z"/>
      </clipPath>
      <clipPath clipPathUnits="userSpaceOnUse" id="clipPath6">
        <path d="M945 364 L945 392 L1074 392 L1074 364 Z"/>
      </clipPath>
    </defs>
    <g fill="white" text-rendering="geometricPrecision" shape-rendering="geometricPrecision" transform="translate(-487,-333)" stroke="white">
      <rect x="487" width="603" height="196" y="333" clip-path="url(#clipPath2)" stroke="none"/>
    </g>
    <g text-rendering="geometricPrecision" stroke-miterlimit="1.45" shape-rendering="geometricPrecision" transform="matrix(1,0,0,1,-487,-333)" stroke-linecap="butt">
      <rect fill="none" x="502.5" width="100" height="28" y="364" clip-path="url(#clipPath2)"/>
      <text x="530.864" font-size="13px" y="381.0669" clip-path="url(#clipPath3)" font-family="sans-serif" stroke="none" font-weight="bold" xml:space="preserve">Klient</text>
      <rect fill="none" x="724" width="100" height="60" y="348" clip-path="url(#clipPath2)"/>
      <text x="729.3135" xml:space="preserve" y="364.1387" clip-path="url(#clipPath4)" font-family="sans-serif" stroke="none">&lt;&lt;interfejs&gt;&gt;</text>
      <text x="737.666" font-size="13px" y="388.0356" clip-path="url(#clipPath4)" font-family="sans-serif" stroke="none" font-weight="bold" xml:space="preserve">Zależność</text>
      <rect fill="none" x="724" width="100" height="28" y="486" clip-path="url(#clipPath2)"/>
      <text x="744.5564" font-size="13px" y="503.0669" clip-path="url(#clipPath5)" font-family="sans-serif" stroke="none" font-weight="bold" xml:space="preserve">Adapter</text>
      <rect fill="none" x="945.5" width="129" height="28" y="364" clip-path="url(#clipPath2)"/>
      <text x="968.9954" font-size="13px" y="381.0669" clip-path="url(#clipPath6)" font-family="sans-serif" stroke="none" font-weight="bold" xml:space="preserve">DoAdaptacji</text>
      <path fill="none" d="M602.4943 378 L715.9636 378" clip-path="url(#clipPath2)"/>
      <path d="M723.9636 378 L711.9636 373 L714.9636 378 L711.9636 383 Z" clip-path="url(#clipPath2)" stroke="none"/>
      <path fill="none" stroke-dasharray="6,2" d="M774 485.9712 L774 423.0242" clip-path="url(#clipPath2)"/>
      <path fill="white" stroke-dasharray="6,2" d="M774 408.0242 L768 424.0242 L780 424.0242 Z" clip-path="url(#clipPath2)" stroke="none"/>
      <path fill="none" d="M774 408.0242 L768 424.0242 L780 424.0242 Z" clip-path="url(#clipPath2)"/>
      <path fill="none" d="M823.9829 500 L1010 500 L1010 407.0288" clip-path="url(#clipPath2)"/>
      <path fill="white" d="M1010 392.0288 L1004 408.0288 L1016 408.0288 Z" clip-path="url(#clipPath2)" stroke="none"/>
      <path fill="none" d="M1010 392.0288 L1004 408.0288 L1016 408.0288 Z" clip-path="url(#clipPath2)"/>
    </g>
  </g>
</svg>
