<?xml version="1.0" encoding="UTF-8"?><svg xmlns="http://www.w3.org/2000/svg" xmlns:xlink="http://www.w3.org/1999/xlink" fill-opacity="1" color-rendering="auto" color-interpolation="auto" text-rendering="auto" stroke="black" stroke-linecap="square" width="416" stroke-miterlimit="10" shape-rendering="auto" stroke-opacity="1" fill="black" stroke-dasharray="none" font-weight="normal" stroke-width="1" height="264" font-family="'Dialog'" font-style="normal" stroke-linejoin="miter" font-size="12px" stroke-dashoffset="0" image-rendering="auto">
  <!--Generated by ySVG 2.5-->
  <defs id="genericDefs"/>
  <g>
    <defs id="defs1">
      <clipPath clipPathUnits="userSpaceOnUse" id="clipPath1">
        <path d="M0 0 L416 0 L416 264 L0 264 L0 0 Z"/>
      </clipPath>
      <clipPath clipPathUnits="userSpaceOnUse" id="clipPath2">
        <path d="M403 374 L819 374 L819 638 L403 638 L403 374 Z"/>
      </clipPath>
      <clipPath clipPathUnits="userSpaceOnUse" id="clipPath3">
        <path d="M513 514 L513 542 L613 542 L613 514 Z"/>
      </clipPath>
      <clipPath clipPathUnits="userSpaceOnUse" id="clipPath4">
        <path d="M704 389 L704 439 L804 439 L804 389 Z"/>
      </clipPath>
      <clipPath clipPathUnits="userSpaceOnUse" id="clipPath5">
        <path d="M704 492 L704 542 L804 542 L804 492 Z"/>
      </clipPath>
      <clipPath clipPathUnits="userSpaceOnUse" id="clipPath6">
        <path d="M611 595 L611 623 L711 623 L711 595 Z"/>
      </clipPath>
      <clipPath clipPathUnits="userSpaceOnUse" id="clipPath7">
        <path d="M418 595 L418 623 L518 623 L518 595 Z"/>
      </clipPath>
    </defs>
    <g fill="white" text-rendering="geometricPrecision" shape-rendering="geometricPrecision" transform="translate(-403,-374)" stroke="white">
      <rect x="403" width="416" height="264" y="374" clip-path="url(#clipPath2)" stroke="none"/>
    </g>
    <g text-rendering="geometricPrecision" stroke-miterlimit="1.45" shape-rendering="geometricPrecision" transform="matrix(1,0,0,1,-403,-374)" stroke-linecap="butt">
      <rect fill="none" x="513" width="100" height="28" y="514" clip-path="url(#clipPath2)"/>
      <text x="539.2249" font-size="13px" y="531.0669" clip-path="url(#clipPath3)" font-family="sans-serif" stroke="none" font-weight="bold" xml:space="preserve">Object</text>
      <rect fill="none" x="704" width="100" height="50" y="389" clip-path="url(#clipPath2)"/>
      <text x="709.3135" xml:space="preserve" y="405.1387" clip-path="url(#clipPath4)" font-family="sans-serif" stroke="none">&lt;&lt;interfejs&gt;&gt;</text>
      <text x="717.6184" font-size="13px" y="429.0356" clip-path="url(#clipPath4)" font-family="sans-serif" stroke="none" font-weight="bold" xml:space="preserve">Collection</text>
      <rect fill="none" x="704" width="100" height="50" y="492" clip-path="url(#clipPath2)"/>
      <text x="709.3135" xml:space="preserve" y="508.1387" clip-path="url(#clipPath5)" font-family="sans-serif" stroke="none">&lt;&lt;interfejs&gt;&gt;</text>
      <text x="740.6541" font-size="13px" y="532.0356" clip-path="url(#clipPath5)" font-family="sans-serif" stroke="none" font-weight="bold" xml:space="preserve">List</text>
      <rect fill="none" x="611" width="100" height="28" y="595" clip-path="url(#clipPath2)"/>
      <text x="623.2727" font-size="13px" y="612.0669" clip-path="url(#clipPath6)" font-family="sans-serif" stroke="none" font-weight="bold" xml:space="preserve">LinkedList</text>
      <rect fill="none" x="418" width="100" height="28" y="595" clip-path="url(#clipPath2)"/>
      <text x="451.239" font-size="13px" y="612.0669" clip-path="url(#clipPath7)" font-family="sans-serif" stroke="none" font-weight="bold" xml:space="preserve">User</text>
      <path fill="none" d="M754 491.9792 L754 454.0158" clip-path="url(#clipPath2)"/>
      <path fill="white" d="M754 439.0158 L748 455.0158 L760 455.0158 Z" clip-path="url(#clipPath2)" stroke="none"/>
      <path fill="none" d="M754 439.0158 L748 455.0158 L760 455.0158 Z" clip-path="url(#clipPath2)"/>
      <path fill="none" d="M644.0845 595.0188 L591.4875 551.5458" clip-path="url(#clipPath2)"/>
      <path fill="white" d="M579.9256 541.9895 L588.4358 556.8076 L596.0808 547.5581 Z" clip-path="url(#clipPath2)" stroke="none"/>
      <path fill="none" d="M579.9256 541.9895 L588.4358 556.8076 L596.0808 547.5581 Z" clip-path="url(#clipPath2)"/>
      <path fill="none" stroke-dasharray="6,2" d="M675.1453 595.0068 L718.0588 552.5547" clip-path="url(#clipPath2)"/>
      <path fill="white" stroke-dasharray="6,2" d="M728.7226 542.0056 L713.1282 548.9925 L721.5676 557.5236 Z" clip-path="url(#clipPath2)" stroke="none"/>
      <path fill="none" d="M728.7226 542.0056 L713.1282 548.9925 L721.5676 557.5236 Z" clip-path="url(#clipPath2)"/>
      <path fill="none" d="M517.9934 609 L602.9686 609" clip-path="url(#clipPath2)"/>
      <path d="M610.9686 609 L598.9686 604 L601.9686 609 L598.9686 614 Z" clip-path="url(#clipPath2)" stroke="none"/>
      <path fill="none" d="M484.3977 595.0188 L535.1783 551.7217" clip-path="url(#clipPath2)"/>
      <path fill="white" d="M546.5925 541.9895 L530.5245 547.8048 L538.3102 556.9362 Z" clip-path="url(#clipPath2)" stroke="none"/>
      <path fill="none" d="M546.5925 541.9895 L530.5245 547.8048 L538.3102 556.9362 Z" clip-path="url(#clipPath2)"/>
    </g>
  </g>
</svg>
