<?xml version="1.0" encoding="UTF-8"?><svg xmlns="http://www.w3.org/2000/svg" xmlns:xlink="http://www.w3.org/1999/xlink" fill-opacity="1" color-rendering="auto" color-interpolation="auto" text-rendering="auto" stroke="black" stroke-linecap="square" width="423" stroke-miterlimit="10" shape-rendering="auto" stroke-opacity="1" fill="black" stroke-dasharray="none" font-weight="normal" stroke-width="1" height="72" font-family="'Dialog'" font-style="normal" stroke-linejoin="miter" font-size="12px" stroke-dashoffset="0" image-rendering="auto">
  <!--Generated by ySVG 2.5-->
  <defs id="genericDefs"/>
  <g>
    <defs id="defs1">
      <clipPath clipPathUnits="userSpaceOnUse" id="clipPath1">
        <path d="M0 0 L423 0 L423 72 L0 72 L0 0 Z"/>
      </clipPath>
      <clipPath clipPathUnits="userSpaceOnUse" id="clipPath2">
        <path d="M509 320 L932 320 L932 392 L509 392 L509 320 Z"/>
      </clipPath>
    </defs>
    <g fill="rgb(153,204,0)" text-rendering="geometricPrecision" shape-rendering="geometricPrecision" transform="matrix(1,0,0,1,-509,-320)" stroke="rgb(153,204,0)">
      <path d="M573.8043 345 L818.8043 345 L818.8043 367 L573.8043 367 Z" stroke="none" clip-path="url(#clipPath2)"/>
    </g>
    <g text-rendering="geometricPrecision" stroke-miterlimit="1.45" shape-rendering="geometricPrecision" transform="matrix(1,0,0,1,-509,-320)" stroke-linecap="butt">
      <path fill="none" d="M573.8043 345 L818.8043 345 L818.8043 367 L573.8043 367 Z" clip-path="url(#clipPath2)"/>
    </g>
    <g text-rendering="geometricPrecision" stroke-miterlimit="1.45" shape-rendering="geometricPrecision" transform="matrix(1,0,0,1,-509,-320)" stroke-linecap="butt">
      <path fill="none" d="M545.5477 377 L550.3696 367.6409 L560.397 370.8492 L557.1886 360.8218 L566.5477 356 L557.1886 351.1782 L560.397 341.1508 L550.3696 344.3591 L545.5477 335 L540.726 344.3591 L530.6985 341.1508 L533.9069 351.1782 L524.5477 356 L533.9069 360.8218 L530.6985 370.8492 L540.726 367.6409 Z" fill-rule="evenodd" clip-path="url(#clipPath2)"/>
    </g>
    <g text-rendering="geometricPrecision" stroke-miterlimit="1.45" shape-rendering="geometricPrecision" font-family="sans-serif" transform="matrix(1,0,0,1,-509,-320)" stroke-linecap="butt">
      <text x="536.703" xml:space="preserve" y="360.1543" clip-path="url(#clipPath2)" stroke="none">#1</text>
    </g>
    <g text-rendering="geometricPrecision" stroke-miterlimit="1.45" shape-rendering="geometricPrecision" transform="matrix(1,0,0,1,-509,-320)" stroke-linecap="butt">
      <path fill="none" d="M867.8043 345 L916.8043 345 L916.8043 367 L867.8043 367 Z" clip-path="url(#clipPath2)"/>
    </g>
    <g fill="rgb(51,204,204)" text-rendering="geometricPrecision" shape-rendering="geometricPrecision" transform="matrix(1,0,0,1,-509,-320)" stroke="rgb(51,204,204)">
      <path d="M818.8043 345 L867.8043 345 L867.8043 367 L818.8043 367 Z" stroke="none" clip-path="url(#clipPath2)"/>
    </g>
    <g text-rendering="geometricPrecision" stroke-miterlimit="1.45" shape-rendering="geometricPrecision" transform="matrix(1,0,0,1,-509,-320)" stroke-linecap="butt">
      <path fill="none" d="M818.8043 345 L867.8043 345 L867.8043 367 L818.8043 367 Z" clip-path="url(#clipPath2)"/>
    </g>
  </g>
</svg>
