<?xml version="1.0" encoding="UTF-8"?><svg xmlns="http://www.w3.org/2000/svg" xmlns:xlink="http://www.w3.org/1999/xlink" fill-opacity="1" color-rendering="auto" color-interpolation="auto" text-rendering="auto" stroke="black" stroke-linecap="square" width="724" stroke-miterlimit="10" shape-rendering="auto" stroke-opacity="1" fill="black" stroke-dasharray="none" font-weight="normal" stroke-width="1" height="114" font-family="'Dialog'" font-style="normal" stroke-linejoin="miter" font-size="12px" stroke-dashoffset="0" image-rendering="auto">
  <!--Generated by ySVG 2.5-->
  <defs id="genericDefs"/>
  <g>
    <defs id="defs1">
      <clipPath clipPathUnits="userSpaceOnUse" id="clipPath1">
        <path d="M0 0 L724 0 L724 114 L0 114 L0 0 Z"/>
      </clipPath>
      <clipPath clipPathUnits="userSpaceOnUse" id="clipPath2">
        <path d="M431 297 L1155 297 L1155 411 L431 411 L431 297 Z"/>
      </clipPath>
    </defs>
    <g fill="rgb(51,204,204)" text-rendering="geometricPrecision" shape-rendering="geometricPrecision" transform="matrix(1,0,0,1,-431,-297)" stroke="rgb(51,204,204)">
      <path d="M550.2 322 L599.2 322 L599.2 344 L550.2 344 Z" stroke="none" clip-path="url(#clipPath2)"/>
    </g>
    <g text-rendering="geometricPrecision" stroke-miterlimit="1.45" shape-rendering="geometricPrecision" transform="matrix(1,0,0,1,-431,-297)" stroke-linecap="butt">
      <path fill="none" d="M550.2 322 L599.2 322 L599.2 344 L550.2 344 Z" clip-path="url(#clipPath2)"/>
    </g>
    <g fill="rgb(153,204,0)" text-rendering="geometricPrecision" shape-rendering="geometricPrecision" transform="matrix(1,0,0,1,-431,-297)" stroke="rgb(153,204,0)">
      <path d="M496.2 322 L545.2 322 L545.2 344 L496.2 344 Z" stroke="none" clip-path="url(#clipPath2)"/>
    </g>
    <g text-rendering="geometricPrecision" stroke-miterlimit="1.45" shape-rendering="geometricPrecision" transform="matrix(1,0,0,1,-431,-297)" stroke-linecap="butt">
      <path fill="none" d="M496.2 322 L545.2 322 L545.2 344 L496.2 344 Z" clip-path="url(#clipPath2)"/>
    </g>
    <g text-rendering="geometricPrecision" stroke-miterlimit="1.45" shape-rendering="geometricPrecision" transform="matrix(1,0,0,1,-431,-297)" stroke-linecap="butt">
      <path fill="none" d="M604.2 322 L653.2 322 L653.2 344 L604.2 344 Z" clip-path="url(#clipPath2)"/>
    </g>
    <g text-rendering="geometricPrecision" stroke-miterlimit="1.45" shape-rendering="geometricPrecision" transform="matrix(1,0,0,1,-431,-297)" stroke-linecap="butt">
      <path fill="none" d="M928.2 322 L977.2 322 L977.2 344 L928.2 344 Z" clip-path="url(#clipPath2)"/>
    </g>
    <g text-rendering="geometricPrecision" stroke-miterlimit="1.45" shape-rendering="geometricPrecision" transform="matrix(1,0,0,1,-431,-297)" stroke-linecap="butt">
      <path fill="none" d="M766.2 322 L815.2 322 L815.2 344 L766.2 344 Z" clip-path="url(#clipPath2)"/>
    </g>
    <g fill="rgb(51,204,204)" text-rendering="geometricPrecision" shape-rendering="geometricPrecision" transform="matrix(1,0,0,1,-431,-297)" stroke="rgb(51,204,204)">
      <path d="M1036.2 322 L1085.2 322 L1085.2 344 L1036.2 344 Z" stroke="none" clip-path="url(#clipPath2)"/>
    </g>
    <g text-rendering="geometricPrecision" stroke-miterlimit="1.45" shape-rendering="geometricPrecision" transform="matrix(1,0,0,1,-431,-297)" stroke-linecap="butt">
      <path fill="none" d="M1036.2 322 L1085.2 322 L1085.2 344 L1036.2 344 Z" clip-path="url(#clipPath2)"/>
    </g>
    <g fill="rgb(51,204,204)" text-rendering="geometricPrecision" shape-rendering="geometricPrecision" transform="matrix(1,0,0,1,-431,-297)" stroke="rgb(51,204,204)">
      <path d="M874.2 322 L923.2 322 L923.2 344 L874.2 344 Z" stroke="none" clip-path="url(#clipPath2)"/>
    </g>
    <g text-rendering="geometricPrecision" stroke-miterlimit="1.45" shape-rendering="geometricPrecision" transform="matrix(1,0,0,1,-431,-297)" stroke-linecap="butt">
      <path fill="none" d="M874.2 322 L923.2 322 L923.2 344 L874.2 344 Z" clip-path="url(#clipPath2)"/>
    </g>
    <g fill="rgb(51,204,204)" text-rendering="geometricPrecision" shape-rendering="geometricPrecision" transform="matrix(1,0,0,1,-431,-297)" stroke="rgb(51,204,204)">
      <path d="M712.2 322 L761.2 322 L761.2 344 L712.2 344 Z" stroke="none" clip-path="url(#clipPath2)"/>
    </g>
    <g text-rendering="geometricPrecision" stroke-miterlimit="1.45" shape-rendering="geometricPrecision" transform="matrix(1,0,0,1,-431,-297)" stroke-linecap="butt">
      <path fill="none" d="M712.2 322 L761.2 322 L761.2 344 L712.2 344 Z" clip-path="url(#clipPath2)"/>
    </g>
    <g fill="rgb(153,204,0)" text-rendering="geometricPrecision" shape-rendering="geometricPrecision" transform="matrix(1,0,0,1,-431,-297)" stroke="rgb(153,204,0)">
      <path d="M1090.2 322 L1139.2 322 L1139.2 344 L1090.2 344 Z" stroke="none" clip-path="url(#clipPath2)"/>
    </g>
    <g text-rendering="geometricPrecision" stroke-miterlimit="1.45" shape-rendering="geometricPrecision" transform="matrix(1,0,0,1,-431,-297)" stroke-linecap="butt">
      <path fill="none" d="M1090.2 322 L1139.2 322 L1139.2 344 L1090.2 344 Z" clip-path="url(#clipPath2)"/>
    </g>
    <g fill="rgb(153,204,0)" text-rendering="geometricPrecision" shape-rendering="geometricPrecision" transform="matrix(1,0,0,1,-431,-297)" stroke="rgb(153,204,0)">
      <path d="M982.2 322 L1031.2 322 L1031.2 344 L982.2 344 Z" stroke="none" clip-path="url(#clipPath2)"/>
    </g>
    <g text-rendering="geometricPrecision" stroke-miterlimit="1.45" shape-rendering="geometricPrecision" transform="matrix(1,0,0,1,-431,-297)" stroke-linecap="butt">
      <path fill="none" d="M982.2 322 L1031.2 322 L1031.2 344 L982.2 344 Z" clip-path="url(#clipPath2)"/>
    </g>
    <g fill="rgb(153,204,0)" text-rendering="geometricPrecision" shape-rendering="geometricPrecision" transform="matrix(1,0,0,1,-431,-297)" stroke="rgb(153,204,0)">
      <path d="M820.2 322 L869.2 322 L869.2 344 L820.2 344 Z" stroke="none" clip-path="url(#clipPath2)"/>
    </g>
    <g text-rendering="geometricPrecision" stroke-miterlimit="1.45" shape-rendering="geometricPrecision" transform="matrix(1,0,0,1,-431,-297)" stroke-linecap="butt">
      <path fill="none" d="M820.2 322 L869.2 322 L869.2 344 L820.2 344 Z" clip-path="url(#clipPath2)"/>
    </g>
    <g fill="rgb(153,204,0)" text-rendering="geometricPrecision" shape-rendering="geometricPrecision" transform="matrix(1,0,0,1,-431,-297)" stroke="rgb(153,204,0)">
      <path d="M658.2 322 L707.2 322 L707.2 344 L658.2 344 Z" stroke="none" clip-path="url(#clipPath2)"/>
    </g>
    <g text-rendering="geometricPrecision" stroke-miterlimit="1.45" shape-rendering="geometricPrecision" transform="matrix(1,0,0,1,-431,-297)" stroke-linecap="butt">
      <path fill="none" d="M658.2 322 L707.2 322 L707.2 344 L658.2 344 Z" clip-path="url(#clipPath2)"/>
    </g>
    <g fill="rgb(51,204,204)" text-rendering="geometricPrecision" shape-rendering="geometricPrecision" transform="matrix(1,0,0,1,-431,-297)" stroke="rgb(51,204,204)">
      <path d="M741.2 374 L937.2 374 L937.2 396 L741.2 396 Z" stroke="none" clip-path="url(#clipPath2)"/>
    </g>
    <g text-rendering="geometricPrecision" stroke-miterlimit="1.45" shape-rendering="geometricPrecision" transform="matrix(1,0,0,1,-431,-297)" stroke-linecap="butt">
      <path fill="none" d="M741.2 374 L937.2 374 L937.2 396 L741.2 396 Z" clip-path="url(#clipPath2)"/>
    </g>
    <g fill="rgb(153,204,0)" text-rendering="geometricPrecision" shape-rendering="geometricPrecision" transform="matrix(1,0,0,1,-431,-297)" stroke="rgb(153,204,0)">
      <path d="M496.2 374 L741.2 374 L741.2 396 L496.2 396 Z" stroke="none" clip-path="url(#clipPath2)"/>
    </g>
    <g text-rendering="geometricPrecision" stroke-miterlimit="1.45" shape-rendering="geometricPrecision" transform="matrix(1,0,0,1,-431,-297)" stroke-linecap="butt">
      <path fill="none" d="M496.2 374 L741.2 374 L741.2 396 L496.2 396 Z" clip-path="url(#clipPath2)"/>
    </g>
    <g text-rendering="geometricPrecision" stroke-miterlimit="1.45" shape-rendering="geometricPrecision" transform="matrix(1,0,0,1,-431,-297)" stroke-linecap="butt">
      <path fill="none" d="M937.2 374 L1084.2 374 L1084.2 396 L937.2 396 Z" clip-path="url(#clipPath2)"/>
    </g>
    <g text-rendering="geometricPrecision" stroke-miterlimit="1.45" shape-rendering="geometricPrecision" transform="matrix(1,0,0,1,-431,-297)" stroke-linecap="butt">
      <path fill="none" d="M467.9435 354 L472.7654 344.6409 L482.7926 347.8492 L479.5843 337.8218 L488.9435 333 L479.5843 328.1782 L482.7926 318.1508 L472.7654 321.3591 L467.9435 312 L463.1217 321.3591 L453.0944 318.1508 L456.3026 328.1782 L446.9435 333 L456.3026 337.8218 L453.0944 347.8492 L463.1217 344.6409 Z" fill-rule="evenodd" clip-path="url(#clipPath2)"/>
    </g>
    <g text-rendering="geometricPrecision" stroke-miterlimit="1.45" shape-rendering="geometricPrecision" font-family="sans-serif" transform="matrix(1,0,0,1,-431,-297)" stroke-linecap="butt">
      <text x="459.0988" xml:space="preserve" y="337.1543" clip-path="url(#clipPath2)" stroke="none">#1</text>
    </g>
  </g>
</svg>
