<?xml version="1.0" encoding="UTF-8"?><svg xmlns="http://www.w3.org/2000/svg" xmlns:xlink="http://www.w3.org/1999/xlink" fill-opacity="1" color-rendering="auto" color-interpolation="auto" text-rendering="auto" stroke="black" stroke-linecap="square" width="439" stroke-miterlimit="10" shape-rendering="auto" stroke-opacity="1" fill="black" stroke-dasharray="none" font-weight="normal" stroke-width="1" height="124" font-family="'Dialog'" font-style="normal" stroke-linejoin="miter" font-size="12px" stroke-dashoffset="0" image-rendering="auto">
  <!--Generated by ySVG 2.5-->
  <defs id="genericDefs"/>
  <g>
    <defs id="defs1">
      <clipPath clipPathUnits="userSpaceOnUse" id="clipPath1">
        <path d="M0 0 L439 0 L439 124 L0 124 L0 0 Z"/>
      </clipPath>
      <clipPath clipPathUnits="userSpaceOnUse" id="clipPath2">
        <path d="M483 312 L922 312 L922 436 L483 436 L483 312 Z"/>
      </clipPath>
    </defs>
    <g fill="rgb(153,204,0)" text-rendering="geometricPrecision" shape-rendering="geometricPrecision" transform="matrix(1,0,0,1,-483,-312)" stroke="rgb(153,204,0)">
      <path d="M710.0304 337 L906.0304 337 L906.0304 359 L710.0304 359 Z" stroke="none" clip-path="url(#clipPath2)"/>
    </g>
    <g text-rendering="geometricPrecision" stroke-miterlimit="1.45" shape-rendering="geometricPrecision" transform="matrix(1,0,0,1,-483,-312)" stroke-linecap="butt">
      <path fill="none" d="M710.0304 337 L906.0304 337 L906.0304 359 L710.0304 359 Z" clip-path="url(#clipPath2)"/>
    </g>
    <g text-rendering="geometricPrecision" stroke-miterlimit="1.45" shape-rendering="geometricPrecision" transform="matrix(1,0,0,1,-483,-312)" stroke-linecap="butt">
      <path fill="none" d="M519.7739 369 L524.5957 359.6409 L534.6231 362.8492 L531.4147 352.8218 L540.7739 348 L531.4147 343.1782 L534.6231 333.1508 L524.5957 336.3591 L519.7739 327 L514.9521 336.3591 L504.9246 333.1508 L508.133 343.1782 L498.7739 348 L508.133 352.8218 L504.9246 362.8492 L514.9521 359.6409 Z" fill-rule="evenodd" clip-path="url(#clipPath2)"/>
    </g>
    <g text-rendering="geometricPrecision" stroke-miterlimit="1.45" shape-rendering="geometricPrecision" font-family="sans-serif" transform="matrix(1,0,0,1,-483,-312)" stroke-linecap="butt">
      <text x="510.9291" xml:space="preserve" y="352.1543" clip-path="url(#clipPath2)" stroke="none">#1</text>
    </g>
    <g text-rendering="geometricPrecision" stroke-miterlimit="1.45" shape-rendering="geometricPrecision" transform="matrix(1,0,0,1,-483,-312)" stroke-linecap="butt">
      <path fill="none" d="M656.0304 337 L705.0304 337 L705.0304 359 L656.0304 359 Z" clip-path="url(#clipPath2)"/>
    </g>
    <g fill="rgb(51,204,204)" text-rendering="geometricPrecision" shape-rendering="geometricPrecision" transform="matrix(1,0,0,1,-483,-312)" stroke="rgb(51,204,204)">
      <path d="M602.0304 337 L651.0304 337 L651.0304 359 L602.0304 359 Z" stroke="none" clip-path="url(#clipPath2)"/>
    </g>
    <g text-rendering="geometricPrecision" stroke-miterlimit="1.45" shape-rendering="geometricPrecision" transform="matrix(1,0,0,1,-483,-312)" stroke-linecap="butt">
      <path fill="none" d="M602.0304 337 L651.0304 337 L651.0304 359 L602.0304 359 Z" clip-path="url(#clipPath2)"/>
    </g>
    <g fill="rgb(153,204,0)" text-rendering="geometricPrecision" shape-rendering="geometricPrecision" transform="matrix(1,0,0,1,-483,-312)" stroke="rgb(153,204,0)">
      <path d="M548.0304 399 L793.0304 399 L793.0304 421 L548.0304 421 Z" stroke="none" clip-path="url(#clipPath2)"/>
    </g>
    <g text-rendering="geometricPrecision" stroke-miterlimit="1.45" shape-rendering="geometricPrecision" transform="matrix(1,0,0,1,-483,-312)" stroke-linecap="butt">
      <path fill="none" d="M548.0304 399 L793.0304 399 L793.0304 421 L548.0304 421 Z" clip-path="url(#clipPath2)"/>
    </g>
    <g text-rendering="geometricPrecision" stroke-miterlimit="1.45" shape-rendering="geometricPrecision" transform="matrix(1,0,0,1,-483,-312)" stroke-linecap="butt">
      <path fill="none" d="M842.0304 399 L891.0304 399 L891.0304 421 L842.0304 421 Z" clip-path="url(#clipPath2)"/>
    </g>
    <g fill="rgb(51,204,204)" text-rendering="geometricPrecision" shape-rendering="geometricPrecision" transform="matrix(1,0,0,1,-483,-312)" stroke="rgb(51,204,204)">
      <path d="M793.0304 399 L842.0304 399 L842.0304 421 L793.0304 421 Z" stroke="none" clip-path="url(#clipPath2)"/>
    </g>
    <g text-rendering="geometricPrecision" stroke-miterlimit="1.45" shape-rendering="geometricPrecision" transform="matrix(1,0,0,1,-483,-312)" stroke-linecap="butt">
      <path fill="none" d="M793.0304 399 L842.0304 399 L842.0304 421 L793.0304 421 Z" clip-path="url(#clipPath2)"/>
    </g>
    <g fill="rgb(153,204,0)" text-rendering="geometricPrecision" shape-rendering="geometricPrecision" transform="matrix(1,0,0,1,-483,-312)" stroke="rgb(153,204,0)">
      <path d="M548.0304 337 L597.0304 337 L597.0304 359 L548.0304 359 Z" stroke="none" clip-path="url(#clipPath2)"/>
    </g>
    <g text-rendering="geometricPrecision" stroke-miterlimit="1.45" shape-rendering="geometricPrecision" transform="matrix(1,0,0,1,-483,-312)" stroke-linecap="butt">
      <path fill="none" d="M548.0304 337 L597.0304 337 L597.0304 359 L548.0304 359 Z" clip-path="url(#clipPath2)"/>
    </g>
  </g>
</svg>
