<?xml version="1.0" encoding="UTF-8"?><svg xmlns="http://www.w3.org/2000/svg" xmlns:xlink="http://www.w3.org/1999/xlink" fill-opacity="1" color-rendering="auto" color-interpolation="auto" text-rendering="auto" stroke="black" stroke-linecap="square" width="724" stroke-miterlimit="10" shape-rendering="auto" stroke-opacity="1" fill="black" stroke-dasharray="none" font-weight="normal" stroke-width="1" height="72" font-family="'Dialog'" font-style="normal" stroke-linejoin="miter" font-size="12px" stroke-dashoffset="0" image-rendering="auto">
  <!--Generated by ySVG 2.5-->
  <defs id="genericDefs"/>
  <g>
    <defs id="defs1">
      <clipPath clipPathUnits="userSpaceOnUse" id="clipPath1">
        <path d="M0 0 L724 0 L724 72 L0 72 L0 0 Z"/>
      </clipPath>
      <clipPath clipPathUnits="userSpaceOnUse" id="clipPath2">
        <path d="M-175 223 L549 223 L549 295 L-175 295 L-175 223 Z"/>
      </clipPath>
    </defs>
    <g fill="rgb(51,204,204)" text-rendering="geometricPrecision" shape-rendering="geometricPrecision" transform="matrix(1,0,0,1,175,-223)" stroke="rgb(51,204,204)">
      <path d="M-55.8 248 L-6.8 248 L-6.8 270 L-55.8 270 Z" stroke="none" clip-path="url(#clipPath2)"/>
    </g>
    <g text-rendering="geometricPrecision" stroke-miterlimit="1.45" shape-rendering="geometricPrecision" transform="matrix(1,0,0,1,175,-223)" stroke-linecap="butt">
      <path fill="none" d="M-55.8 248 L-6.8 248 L-6.8 270 L-55.8 270 Z" clip-path="url(#clipPath2)"/>
    </g>
    <g fill="rgb(153,204,0)" text-rendering="geometricPrecision" shape-rendering="geometricPrecision" transform="matrix(1,0,0,1,175,-223)" stroke="rgb(153,204,0)">
      <path d="M-109.8 248 L-60.8 248 L-60.8 270 L-109.8 270 Z" stroke="none" clip-path="url(#clipPath2)"/>
    </g>
    <g text-rendering="geometricPrecision" stroke-miterlimit="1.45" shape-rendering="geometricPrecision" transform="matrix(1,0,0,1,175,-223)" stroke-linecap="butt">
      <path fill="none" d="M-109.8 248 L-60.8 248 L-60.8 270 L-109.8 270 Z" clip-path="url(#clipPath2)"/>
    </g>
    <g text-rendering="geometricPrecision" stroke-miterlimit="1.45" shape-rendering="geometricPrecision" transform="matrix(1,0,0,1,175,-223)" stroke-linecap="butt">
      <path fill="none" d="M-1.8 248 L47.2 248 L47.2 270 L-1.8 270 Z" clip-path="url(#clipPath2)"/>
    </g>
    <g text-rendering="geometricPrecision" stroke-miterlimit="1.45" shape-rendering="geometricPrecision" transform="matrix(1,0,0,1,175,-223)" stroke-linecap="butt">
      <path fill="none" d="M322.2 248 L371.2 248 L371.2 270 L322.2 270 Z" clip-path="url(#clipPath2)"/>
    </g>
    <g text-rendering="geometricPrecision" stroke-miterlimit="1.45" shape-rendering="geometricPrecision" transform="matrix(1,0,0,1,175,-223)" stroke-linecap="butt">
      <path fill="none" d="M160.2 248 L209.2 248 L209.2 270 L160.2 270 Z" clip-path="url(#clipPath2)"/>
    </g>
    <g fill="rgb(51,204,204)" text-rendering="geometricPrecision" shape-rendering="geometricPrecision" transform="matrix(1,0,0,1,175,-223)" stroke="rgb(51,204,204)">
      <path d="M430.2 248 L479.2 248 L479.2 270 L430.2 270 Z" stroke="none" clip-path="url(#clipPath2)"/>
    </g>
    <g text-rendering="geometricPrecision" stroke-miterlimit="1.45" shape-rendering="geometricPrecision" transform="matrix(1,0,0,1,175,-223)" stroke-linecap="butt">
      <path fill="none" d="M430.2 248 L479.2 248 L479.2 270 L430.2 270 Z" clip-path="url(#clipPath2)"/>
    </g>
    <g fill="rgb(51,204,204)" text-rendering="geometricPrecision" shape-rendering="geometricPrecision" transform="matrix(1,0,0,1,175,-223)" stroke="rgb(51,204,204)">
      <path d="M268.2 248 L317.2 248 L317.2 270 L268.2 270 Z" stroke="none" clip-path="url(#clipPath2)"/>
    </g>
    <g text-rendering="geometricPrecision" stroke-miterlimit="1.45" shape-rendering="geometricPrecision" transform="matrix(1,0,0,1,175,-223)" stroke-linecap="butt">
      <path fill="none" d="M268.2 248 L317.2 248 L317.2 270 L268.2 270 Z" clip-path="url(#clipPath2)"/>
    </g>
    <g fill="rgb(51,204,204)" text-rendering="geometricPrecision" shape-rendering="geometricPrecision" transform="matrix(1,0,0,1,175,-223)" stroke="rgb(51,204,204)">
      <path d="M106.2 248 L155.2 248 L155.2 270 L106.2 270 Z" stroke="none" clip-path="url(#clipPath2)"/>
    </g>
    <g text-rendering="geometricPrecision" stroke-miterlimit="1.45" shape-rendering="geometricPrecision" transform="matrix(1,0,0,1,175,-223)" stroke-linecap="butt">
      <path fill="none" d="M106.2 248 L155.2 248 L155.2 270 L106.2 270 Z" clip-path="url(#clipPath2)"/>
    </g>
    <g fill="rgb(153,204,0)" text-rendering="geometricPrecision" shape-rendering="geometricPrecision" transform="matrix(1,0,0,1,175,-223)" stroke="rgb(153,204,0)">
      <path d="M484.2 248 L533.2 248 L533.2 270 L484.2 270 Z" stroke="none" clip-path="url(#clipPath2)"/>
    </g>
    <g text-rendering="geometricPrecision" stroke-miterlimit="1.45" shape-rendering="geometricPrecision" transform="matrix(1,0,0,1,175,-223)" stroke-linecap="butt">
      <path fill="none" d="M484.2 248 L533.2 248 L533.2 270 L484.2 270 Z" clip-path="url(#clipPath2)"/>
    </g>
    <g fill="rgb(153,204,0)" text-rendering="geometricPrecision" shape-rendering="geometricPrecision" transform="matrix(1,0,0,1,175,-223)" stroke="rgb(153,204,0)">
      <path d="M376.2 248 L425.2 248 L425.2 270 L376.2 270 Z" stroke="none" clip-path="url(#clipPath2)"/>
    </g>
    <g text-rendering="geometricPrecision" stroke-miterlimit="1.45" shape-rendering="geometricPrecision" transform="matrix(1,0,0,1,175,-223)" stroke-linecap="butt">
      <path fill="none" d="M376.2 248 L425.2 248 L425.2 270 L376.2 270 Z" clip-path="url(#clipPath2)"/>
    </g>
    <g fill="rgb(153,204,0)" text-rendering="geometricPrecision" shape-rendering="geometricPrecision" transform="matrix(1,0,0,1,175,-223)" stroke="rgb(153,204,0)">
      <path d="M214.2 248 L263.2 248 L263.2 270 L214.2 270 Z" stroke="none" clip-path="url(#clipPath2)"/>
    </g>
    <g text-rendering="geometricPrecision" stroke-miterlimit="1.45" shape-rendering="geometricPrecision" transform="matrix(1,0,0,1,175,-223)" stroke-linecap="butt">
      <path fill="none" d="M214.2 248 L263.2 248 L263.2 270 L214.2 270 Z" clip-path="url(#clipPath2)"/>
    </g>
    <g fill="rgb(153,204,0)" text-rendering="geometricPrecision" shape-rendering="geometricPrecision" transform="matrix(1,0,0,1,175,-223)" stroke="rgb(153,204,0)">
      <path d="M52.2 248 L101.2 248 L101.2 270 L52.2 270 Z" stroke="none" clip-path="url(#clipPath2)"/>
    </g>
    <g text-rendering="geometricPrecision" stroke-miterlimit="1.45" shape-rendering="geometricPrecision" transform="matrix(1,0,0,1,175,-223)" stroke-linecap="butt">
      <path fill="none" d="M52.2 248 L101.2 248 L101.2 270 L52.2 270 Z" clip-path="url(#clipPath2)"/>
    </g>
    <g text-rendering="geometricPrecision" stroke-miterlimit="1.45" shape-rendering="geometricPrecision" transform="matrix(1,0,0,1,175,-223)" stroke-linecap="butt">
      <path fill="none" d="M-138.36 280 L-133.5382 270.6409 L-123.5108 273.8492 L-126.7191 263.8218 L-117.36 259 L-126.7191 254.1782 L-123.5108 244.1508 L-133.5382 247.3591 L-138.36 238 L-143.1818 247.3591 L-153.2092 244.1508 L-150.0009 254.1782 L-159.36 259 L-150.0009 263.8218 L-153.2092 273.8492 L-143.1818 270.6409 Z" fill-rule="evenodd" clip-path="url(#clipPath2)"/>
    </g>
    <g text-rendering="geometricPrecision" stroke-miterlimit="1.45" shape-rendering="geometricPrecision" font-family="sans-serif" transform="matrix(1,0,0,1,175,-223)" stroke-linecap="butt">
      <text x="-147.2047" xml:space="preserve" y="263.1543" clip-path="url(#clipPath2)" stroke="none">#1</text>
    </g>
  </g>
</svg>
