<?xml version="1.0" encoding="UTF-8"?><svg xmlns="http://www.w3.org/2000/svg" xmlns:xlink="http://www.w3.org/1999/xlink" fill-opacity="1" color-rendering="auto" color-interpolation="auto" text-rendering="auto" stroke="black" stroke-linecap="square" width="668" stroke-miterlimit="10" shape-rendering="auto" stroke-opacity="1" fill="black" stroke-dasharray="none" font-weight="normal" stroke-width="1" height="73" font-family="'Dialog'" font-style="normal" stroke-linejoin="miter" font-size="12px" stroke-dashoffset="0" image-rendering="auto">
  <!--Generated by ySVG 2.5-->
  <defs id="genericDefs"/>
  <g>
    <defs id="defs1">
      <clipPath clipPathUnits="userSpaceOnUse" id="clipPath1">
        <path d="M0 0 L668 0 L668 73 L0 73 L0 0 Z"/>
      </clipPath>
      <clipPath clipPathUnits="userSpaceOnUse" id="clipPath2">
        <path d="M-198 40 L470 40 L470 113 L-198 113 L-198 40 Z"/>
      </clipPath>
    </defs>
    <g fill="rgb(51,204,204)" text-rendering="geometricPrecision" shape-rendering="geometricPrecision" transform="matrix(1,0,0,1,198,-40)" stroke="rgb(51,204,204)">
      <path d="M111.6 65.5 L307.6 65.5 L307.6 87.5 L111.6 87.5 Z" stroke="none" clip-path="url(#clipPath2)"/>
    </g>
    <g text-rendering="geometricPrecision" stroke-miterlimit="1.45" shape-rendering="geometricPrecision" transform="matrix(1,0,0,1,198,-40)" stroke-linecap="butt">
      <path fill="none" d="M111.6 65.5 L307.6 65.5 L307.6 87.5 L111.6 87.5 Z" clip-path="url(#clipPath2)"/>
    </g>
    <g fill="rgb(153,204,0)" text-rendering="geometricPrecision" shape-rendering="geometricPrecision" transform="matrix(1,0,0,1,198,-40)" stroke="rgb(153,204,0)">
      <path d="M-133.4 65.5 L111.6 65.5 L111.6 87.5 L-133.4 87.5 Z" stroke="none" clip-path="url(#clipPath2)"/>
    </g>
    <g text-rendering="geometricPrecision" stroke-miterlimit="1.45" shape-rendering="geometricPrecision" transform="matrix(1,0,0,1,198,-40)" stroke-linecap="butt">
      <path fill="none" d="M-133.4 65.5 L111.6 65.5 L111.6 87.5 L-133.4 87.5 Z" clip-path="url(#clipPath2)"/>
    </g>
    <g text-rendering="geometricPrecision" stroke-miterlimit="1.45" shape-rendering="geometricPrecision" transform="matrix(1,0,0,1,198,-40)" stroke-linecap="butt">
      <path fill="none" d="M307.6 65.5 L454.6 65.5 L454.6 87.5 L307.6 87.5 Z" clip-path="url(#clipPath2)"/>
    </g>
    <g text-rendering="geometricPrecision" stroke-miterlimit="1.45" shape-rendering="geometricPrecision" transform="matrix(1,0,0,1,198,-40)" stroke-linecap="butt">
      <path fill="none" d="M-161.6667 97.5 L-156.8448 88.1409 L-146.8174 91.3492 L-150.0258 81.3218 L-140.6667 76.5 L-150.0258 71.6782 L-146.8174 61.6508 L-156.8448 64.8591 L-161.6667 55.5 L-166.4885 64.8591 L-176.5159 61.6508 L-173.3076 71.6782 L-182.6667 76.5 L-173.3076 81.3218 L-176.5159 91.3492 L-166.4885 88.1409 Z" fill-rule="evenodd" clip-path="url(#clipPath2)"/>
    </g>
    <g text-rendering="geometricPrecision" stroke-miterlimit="1.45" shape-rendering="geometricPrecision" font-family="sans-serif" transform="matrix(1,0,0,1,198,-40)" stroke-linecap="butt">
      <text x="-170.5114" xml:space="preserve" y="80.6543" clip-path="url(#clipPath2)" stroke="none">#1</text>
    </g>
  </g>
</svg>
