<?xml version="1.0" encoding="UTF-8"?><svg xmlns="http://www.w3.org/2000/svg" xmlns:xlink="http://www.w3.org/1999/xlink" fill-opacity="1" color-rendering="auto" color-interpolation="auto" text-rendering="auto" stroke="black" stroke-linecap="square" width="669" stroke-miterlimit="10" shape-rendering="auto" stroke-opacity="1" fill="black" stroke-dasharray="none" font-weight="normal" stroke-width="1" height="186" font-family="'Dialog'" font-style="normal" stroke-linejoin="miter" font-size="12px" stroke-dashoffset="0" image-rendering="auto">
  <!--Generated by ySVG 2.5-->
  <defs id="genericDefs"/>
  <g>
    <defs id="defs1">
      <clipPath clipPathUnits="userSpaceOnUse" id="clipPath1">
        <path d="M0 0 L669 0 L669 186 L0 186 L0 0 Z"/>
      </clipPath>
      <clipPath clipPathUnits="userSpaceOnUse" id="clipPath2">
        <path d="M457 270 L1126 270 L1126 456 L457 456 L457 270 Z"/>
      </clipPath>
    </defs>
    <g fill="rgb(51,204,204)" text-rendering="geometricPrecision" shape-rendering="geometricPrecision" transform="matrix(1,0,0,1,-457,-270)" stroke="rgb(51,204,204)">
      <path d="M522.1435 357 L571.1435 357 L571.1435 379 L522.1435 379 Z" stroke="none" clip-path="url(#clipPath2)"/>
    </g>
    <g text-rendering="geometricPrecision" stroke-miterlimit="1.45" shape-rendering="geometricPrecision" transform="matrix(1,0,0,1,-457,-270)" stroke-linecap="butt">
      <path fill="none" d="M522.1435 357 L571.1435 357 L571.1435 379 L522.1435 379 Z" clip-path="url(#clipPath2)"/>
    </g>
    <g text-rendering="geometricPrecision" stroke-miterlimit="1.45" shape-rendering="geometricPrecision" transform="matrix(1,0,0,1,-457,-270)" stroke-linecap="butt">
      <path fill="none" d="M630.1435 357 L679.1435 357 L679.1435 379 L630.1435 379 Z" clip-path="url(#clipPath2)"/>
    </g>
    <g fill="rgb(51,204,204)" text-rendering="geometricPrecision" shape-rendering="geometricPrecision" transform="matrix(1,0,0,1,-457,-270)" stroke="rgb(51,204,204)">
      <path d="M684.1435 357 L733.1435 357 L733.1435 379 L684.1435 379 Z" stroke="none" clip-path="url(#clipPath2)"/>
    </g>
    <g text-rendering="geometricPrecision" stroke-miterlimit="1.45" shape-rendering="geometricPrecision" transform="matrix(1,0,0,1,-457,-270)" stroke-linecap="butt">
      <path fill="none" d="M684.1435 357 L733.1435 357 L733.1435 379 L684.1435 379 Z" clip-path="url(#clipPath2)"/>
    </g>
    <g fill="rgb(153,204,0)" text-rendering="geometricPrecision" shape-rendering="geometricPrecision" transform="matrix(1,0,0,1,-457,-270)" stroke="rgb(153,204,0)">
      <path d="M738.1435 357 L836.1435 357 L836.1435 379 L738.1435 379 Z" stroke="none" clip-path="url(#clipPath2)"/>
    </g>
    <g text-rendering="geometricPrecision" stroke-miterlimit="1.45" shape-rendering="geometricPrecision" transform="matrix(1,0,0,1,-457,-270)" stroke-linecap="butt">
      <path fill="none" d="M738.1435 357 L836.1435 357 L836.1435 379 L738.1435 379 Z" clip-path="url(#clipPath2)"/>
    </g>
    <g fill="rgb(153,204,0)" text-rendering="geometricPrecision" shape-rendering="geometricPrecision" transform="matrix(1,0,0,1,-457,-270)" stroke="rgb(153,204,0)">
      <path d="M576.1435 357 L625.1435 357 L625.1435 379 L576.1435 379 Z" stroke="none" clip-path="url(#clipPath2)"/>
    </g>
    <g text-rendering="geometricPrecision" stroke-miterlimit="1.45" shape-rendering="geometricPrecision" transform="matrix(1,0,0,1,-457,-270)" stroke-linecap="butt">
      <path fill="none" d="M576.1435 357 L625.1435 357 L625.1435 379 L576.1435 379 Z" clip-path="url(#clipPath2)"/>
    </g>
    <g fill="rgb(51,204,204)" text-rendering="geometricPrecision" shape-rendering="geometricPrecision" transform="matrix(1,0,0,1,-457,-270)" stroke="rgb(51,204,204)">
      <path d="M767.1435 419 L963.1435 419 L963.1435 441 L767.1435 441 Z" stroke="none" clip-path="url(#clipPath2)"/>
    </g>
    <g text-rendering="geometricPrecision" stroke-miterlimit="1.45" shape-rendering="geometricPrecision" transform="matrix(1,0,0,1,-457,-270)" stroke-linecap="butt">
      <path fill="none" d="M767.1435 419 L963.1435 419 L963.1435 441 L767.1435 441 Z" clip-path="url(#clipPath2)"/>
    </g>
    <g fill="rgb(153,204,0)" text-rendering="geometricPrecision" shape-rendering="geometricPrecision" transform="matrix(1,0,0,1,-457,-270)" stroke="rgb(153,204,0)">
      <path d="M522.1435 419 L767.1435 419 L767.1435 441 L522.1435 441 Z" stroke="none" clip-path="url(#clipPath2)"/>
    </g>
    <g text-rendering="geometricPrecision" stroke-miterlimit="1.45" shape-rendering="geometricPrecision" transform="matrix(1,0,0,1,-457,-270)" stroke-linecap="butt">
      <path fill="none" d="M522.1435 419 L767.1435 419 L767.1435 441 L522.1435 441 Z" clip-path="url(#clipPath2)"/>
    </g>
    <g text-rendering="geometricPrecision" stroke-miterlimit="1.45" shape-rendering="geometricPrecision" transform="matrix(1,0,0,1,-457,-270)" stroke-linecap="butt">
      <path fill="none" d="M963.1435 419 L1110.1434 419 L1110.1434 441 L963.1435 441 Z" clip-path="url(#clipPath2)"/>
    </g>
    <g text-rendering="geometricPrecision" stroke-miterlimit="1.45" shape-rendering="geometricPrecision" transform="matrix(1,0,0,1,-457,-270)" stroke-linecap="butt">
      <path fill="none" d="M493.8869 389 L498.7087 379.6409 L508.7361 382.8492 L505.5278 372.8218 L514.8869 368 L505.5278 363.1782 L508.7361 353.1508 L498.7087 356.3591 L493.8869 347 L489.0651 356.3591 L479.0377 353.1508 L482.2461 363.1782 L472.8869 368 L482.2461 372.8218 L479.0377 382.8492 L489.0651 379.6409 Z" fill-rule="evenodd" clip-path="url(#clipPath2)"/>
    </g>
    <g text-rendering="geometricPrecision" stroke-miterlimit="1.45" shape-rendering="geometricPrecision" font-family="sans-serif" transform="matrix(1,0,0,1,-457,-270)" stroke-linecap="butt">
      <text x="485.0422" xml:space="preserve" y="372.1543" clip-path="url(#clipPath2)" stroke="none">#2</text>
    </g>
    <g fill="rgb(153,204,0)" text-rendering="geometricPrecision" shape-rendering="geometricPrecision" transform="matrix(1,0,0,1,-457,-270)" stroke="rgb(153,204,0)">
      <path d="M522.1435 295 L571.1435 295 L571.1435 317 L522.1435 317 Z" stroke="none" clip-path="url(#clipPath2)"/>
    </g>
    <g text-rendering="geometricPrecision" stroke-miterlimit="1.45" shape-rendering="geometricPrecision" transform="matrix(1,0,0,1,-457,-270)" stroke-linecap="butt">
      <path fill="none" d="M522.1435 295 L571.1435 295 L571.1435 317 L522.1435 317 Z" clip-path="url(#clipPath2)"/>
    </g>
    <g text-rendering="geometricPrecision" stroke-miterlimit="1.45" shape-rendering="geometricPrecision" transform="matrix(1,0,0,1,-457,-270)" stroke-linecap="butt">
      <path fill="none" d="M576.1435 295 L625.1435 295 L625.1435 317 L576.1435 317 Z" clip-path="url(#clipPath2)"/>
    </g>
    <g text-rendering="geometricPrecision" stroke-miterlimit="1.45" shape-rendering="geometricPrecision" transform="matrix(1,0,0,1,-457,-270)" stroke-linecap="butt">
      <path fill="none" d="M738.1435 295 L787.1435 295 L787.1435 317 L738.1435 317 Z" clip-path="url(#clipPath2)"/>
    </g>
    <g fill="rgb(51,204,204)" text-rendering="geometricPrecision" shape-rendering="geometricPrecision" transform="matrix(1,0,0,1,-457,-270)" stroke="rgb(51,204,204)">
      <path d="M792.1435 295 L841.1435 295 L841.1435 317 L792.1435 317 Z" stroke="none" clip-path="url(#clipPath2)"/>
    </g>
    <g text-rendering="geometricPrecision" stroke-miterlimit="1.45" shape-rendering="geometricPrecision" transform="matrix(1,0,0,1,-457,-270)" stroke-linecap="butt">
      <path fill="none" d="M792.1435 295 L841.1435 295 L841.1435 317 L792.1435 317 Z" clip-path="url(#clipPath2)"/>
    </g>
    <g fill="rgb(51,204,204)" text-rendering="geometricPrecision" shape-rendering="geometricPrecision" transform="matrix(1,0,0,1,-457,-270)" stroke="rgb(51,204,204)">
      <path d="M630.1435 295 L679.1435 295 L679.1435 317 L630.1435 317 Z" stroke="none" clip-path="url(#clipPath2)"/>
    </g>
    <g text-rendering="geometricPrecision" stroke-miterlimit="1.45" shape-rendering="geometricPrecision" transform="matrix(1,0,0,1,-457,-270)" stroke-linecap="butt">
      <path fill="none" d="M630.1435 295 L679.1435 295 L679.1435 317 L630.1435 317 Z" clip-path="url(#clipPath2)"/>
    </g>
    <g fill="rgb(153,204,0)" text-rendering="geometricPrecision" shape-rendering="geometricPrecision" transform="matrix(1,0,0,1,-457,-270)" stroke="rgb(153,204,0)">
      <path d="M684.1435 295 L733.1435 295 L733.1435 317 L684.1435 317 Z" stroke="none" clip-path="url(#clipPath2)"/>
    </g>
    <g text-rendering="geometricPrecision" stroke-miterlimit="1.45" shape-rendering="geometricPrecision" transform="matrix(1,0,0,1,-457,-270)" stroke-linecap="butt">
      <path fill="none" d="M684.1435 295 L733.1435 295 L733.1435 317 L684.1435 317 Z" clip-path="url(#clipPath2)"/>
    </g>
    <g text-rendering="geometricPrecision" stroke-miterlimit="1.45" shape-rendering="geometricPrecision" transform="matrix(1,0,0,1,-457,-270)" stroke-linecap="butt">
      <path fill="none" d="M493.8869 327 L498.7088 317.6409 L508.7362 320.8492 L505.5278 310.8218 L514.887 306 L505.5278 301.1782 L508.7362 291.1508 L498.7088 294.3591 L493.8869 285 L489.0651 294.3591 L479.0377 291.1508 L482.2461 301.1782 L472.8869 306 L482.2461 310.8218 L479.0377 320.8492 L489.0651 317.6409 Z" fill-rule="evenodd" clip-path="url(#clipPath2)"/>
      <text x="485.0422" xml:space="preserve" y="310.1543" clip-path="url(#clipPath2)" font-family="sans-serif" stroke="none">#1</text>
    </g>
  </g>
</svg>
