<?xml version="1.0" encoding="UTF-8"?><svg xmlns="http://www.w3.org/2000/svg" xmlns:xlink="http://www.w3.org/1999/xlink" fill-opacity="1" color-rendering="auto" color-interpolation="auto" text-rendering="auto" stroke="black" stroke-linecap="square" width="326" stroke-miterlimit="10" shape-rendering="auto" stroke-opacity="1" fill="black" stroke-dasharray="none" font-weight="normal" stroke-width="1" height="196" font-family="'Dialog'" font-style="normal" stroke-linejoin="miter" font-size="12px" stroke-dashoffset="0" image-rendering="auto">
  <!--Generated by ySVG 2.5-->
  <defs id="genericDefs"/>
  <g>
    <defs id="defs1">
      <clipPath clipPathUnits="userSpaceOnUse" id="clipPath1">
        <path d="M0 0 L326 0 L326 196 L0 196 L0 0 Z"/>
      </clipPath>
      <clipPath clipPathUnits="userSpaceOnUse" id="clipPath2">
        <path d="M483 295 L809 295 L809 491 L483 491 L483 295 Z"/>
      </clipPath>
    </defs>
    <g fill="rgb(51,204,204)" text-rendering="geometricPrecision" shape-rendering="geometricPrecision" transform="matrix(1,0,0,1,-483,-295)" stroke="rgb(51,204,204)">
      <path d="M548.0304 382 L744.0304 382 L744.0304 404 L548.0304 404 Z" stroke="none" clip-path="url(#clipPath2)"/>
    </g>
    <g text-rendering="geometricPrecision" stroke-miterlimit="1.45" shape-rendering="geometricPrecision" transform="matrix(1,0,0,1,-483,-295)" stroke-linecap="butt">
      <path fill="none" d="M548.0304 382 L744.0304 382 L744.0304 404 L548.0304 404 Z" clip-path="url(#clipPath2)"/>
    </g>
    <g fill="rgb(153,204,0)" text-rendering="geometricPrecision" shape-rendering="geometricPrecision" transform="matrix(1,0,0,1,-483,-295)" stroke="rgb(153,204,0)">
      <path d="M548.0304 320 L793.0304 320 L793.0304 342 L548.0304 342 Z" stroke="none" clip-path="url(#clipPath2)"/>
    </g>
    <g text-rendering="geometricPrecision" stroke-miterlimit="1.45" shape-rendering="geometricPrecision" transform="matrix(1,0,0,1,-483,-295)" stroke-linecap="butt">
      <path fill="none" d="M548.0304 320 L793.0304 320 L793.0304 342 L548.0304 342 Z" clip-path="url(#clipPath2)"/>
    </g>
    <g text-rendering="geometricPrecision" stroke-miterlimit="1.45" shape-rendering="geometricPrecision" transform="matrix(1,0,0,1,-483,-295)" stroke-linecap="butt">
      <path fill="none" d="M548.0304 444 L695.0304 444 L695.0304 466 L548.0304 466 Z" clip-path="url(#clipPath2)"/>
    </g>
    <g text-rendering="geometricPrecision" stroke-miterlimit="1.45" shape-rendering="geometricPrecision" transform="matrix(1,0,0,1,-483,-295)" stroke-linecap="butt">
      <path fill="none" d="M519.7739 414 L524.5957 404.6409 L534.6231 407.8492 L531.4147 397.8218 L540.7739 393 L531.4147 388.1782 L534.6231 378.1508 L524.5957 381.3591 L519.7739 372 L514.952 381.3591 L504.9246 378.1508 L508.133 388.1782 L498.7739 393 L508.133 397.8218 L504.9246 407.8492 L514.952 404.6409 Z" fill-rule="evenodd" clip-path="url(#clipPath2)"/>
    </g>
    <g text-rendering="geometricPrecision" stroke-miterlimit="1.45" shape-rendering="geometricPrecision" font-family="sans-serif" transform="matrix(1,0,0,1,-483,-295)" stroke-linecap="butt">
      <text x="510.9291" xml:space="preserve" y="397.1543" clip-path="url(#clipPath2)" stroke="none">#2</text>
      <path fill="none" d="M519.7739 352 L524.5957 342.6409 L534.6231 345.8492 L531.4147 335.8218 L540.7739 331 L531.4147 326.1782 L534.6231 316.1508 L524.5957 319.3591 L519.7739 310 L514.952 319.3591 L504.9246 316.1508 L508.133 326.1782 L498.7739 331 L508.133 335.8218 L504.9246 345.8492 L514.952 342.6409 Z" clip-path="url(#clipPath2)" fill-rule="evenodd"/>
      <text x="510.9291" xml:space="preserve" y="335.1543" clip-path="url(#clipPath2)" stroke="none">#1</text>
      <path fill="none" d="M519.7739 476 L524.5957 466.6409 L534.6231 469.8492 L531.4147 459.8218 L540.7739 455 L531.4147 450.1782 L534.6231 440.1508 L524.5957 443.3591 L519.7739 434 L514.9521 443.3591 L504.9246 440.1508 L508.133 450.1782 L498.7739 455 L508.133 459.8218 L504.9246 469.8492 L514.9521 466.6409 Z" clip-path="url(#clipPath2)" fill-rule="evenodd"/>
      <text x="510.9291" xml:space="preserve" y="459.1543" clip-path="url(#clipPath2)" stroke="none">#3</text>
    </g>
  </g>
</svg>
