<?xml version="1.0" encoding="UTF-8"?><svg xmlns="http://www.w3.org/2000/svg" xmlns:xlink="http://www.w3.org/1999/xlink" fill-opacity="1" color-rendering="auto" color-interpolation="auto" text-rendering="auto" stroke="black" stroke-linecap="square" width="684" stroke-miterlimit="10" shape-rendering="auto" stroke-opacity="1" fill="black" stroke-dasharray="none" font-weight="normal" stroke-width="1" height="114" font-family="'Dialog'" font-style="normal" stroke-linejoin="miter" font-size="12px" stroke-dashoffset="0" image-rendering="auto">
  <!--Generated by ySVG 2.5-->
  <defs id="genericDefs"/>
  <g>
    <defs id="defs1">
      <clipPath clipPathUnits="userSpaceOnUse" id="clipPath1">
        <path d="M0 0 L684 0 L684 114 L0 114 L0 0 Z"/>
      </clipPath>
      <clipPath clipPathUnits="userSpaceOnUse" id="clipPath2">
        <path d="M343 366 L1027 366 L1027 480 L343 480 L343 366 Z"/>
      </clipPath>
    </defs>
    <g text-rendering="geometricPrecision" stroke-miterlimit="1.45" shape-rendering="geometricPrecision" transform="matrix(1,0,0,1,-343,-366)" stroke-linecap="butt">
      <rect fill="none" x="358.696" width="143" height="27" y="381" clip-path="url(#clipPath2)"/>
    </g>
    <g text-rendering="geometricPrecision" stroke-miterlimit="1.45" shape-rendering="geometricPrecision" font-family="sans-serif" transform="matrix(1,0,0,1,-343,-366)" stroke-linecap="butt">
      <text x="415.9841" xml:space="preserve" y="398.6543" clip-path="url(#clipPath2)" stroke="none">NEW</text>
      <rect fill="none" x="529" width="312.312" height="27" y="381" clip-path="url(#clipPath2)"/>
      <text x="652.2644" xml:space="preserve" y="398.6543" clip-path="url(#clipPath2)" stroke="none">RUNNABLE</text>
      <rect fill="none" x="613.656" width="143" height="27" y="438" clip-path="url(#clipPath2)"/>
      <text x="656.4392" xml:space="preserve" y="455.6543" clip-path="url(#clipPath2)" stroke="none">BLOCKED</text>
      <rect fill="none" x="443.848" width="143" height="27" y="438" clip-path="url(#clipPath2)"/>
      <text x="488.9691" xml:space="preserve" y="455.6543" clip-path="url(#clipPath2)" stroke="none">WAITING</text>
      <rect fill="none" x="783.464" width="143" height="27" y="438" clip-path="url(#clipPath2)"/>
      <text x="806.5626" xml:space="preserve" y="455.6543" clip-path="url(#clipPath2)" stroke="none">TIMED_WAITING</text>
      <rect fill="none" x="868.616" width="143" height="27" y="381" clip-path="url(#clipPath2)"/>
      <text x="900.8758" xml:space="preserve" y="398.6543" clip-path="url(#clipPath2)" stroke="none">TERMINATED</text>
      <path fill="none" d="M501.696 394.5 L521 394.5" clip-path="url(#clipPath2)"/>
      <path d="M529 394.5 L517 389.5 L520 394.5 L517 399.5 Z" clip-path="url(#clipPath2)" stroke="none"/>
      <path fill="none" d="M676.6707 407.9969 L676.6707 429.9718" clip-path="url(#clipPath2)"/>
      <path d="M676.6707 437.9718 L681.6707 425.9718 L676.6707 428.9718 L671.6707 425.9718 Z" clip-path="url(#clipPath2)" stroke="none"/>
      <path fill="none" d="M695.0779 437.9727 L695.0779 416.0289" clip-path="url(#clipPath2)"/>
      <path d="M695.0779 408.0289 L690.0779 420.0289 L695.0779 417.0289 L700.0779 420.0289 Z" clip-path="url(#clipPath2)" stroke="none"/>
      <path fill="none" d="M543.8525 429.9676 L543.8525 408.0155" clip-path="url(#clipPath2)"/>
      <path d="M543.8525 437.9676 L548.8525 425.9676 L543.8525 428.9676 L538.8525 425.9676 Z" clip-path="url(#clipPath2)" stroke="none"/>
      <path fill="none" d="M560.5092 437.9956 L560.5092 416.0316" clip-path="url(#clipPath2)"/>
      <path d="M560.5092 408.0316 L555.5092 420.0316 L560.5092 417.0316 L565.5092 420.0316 Z" clip-path="url(#clipPath2)" stroke="none"/>
      <path fill="none" d="M586.848 451.5 L605.656 451.5" clip-path="url(#clipPath2)"/>
      <path d="M613.656 451.5 L601.656 446.5 L604.656 451.5 L601.656 456.5 Z" clip-path="url(#clipPath2)" stroke="none"/>
      <path fill="none" d="M829.4327 416.0339 L829.4327 437.9966" clip-path="url(#clipPath2)"/>
      <path d="M829.4327 408.0339 L824.4327 420.0339 L829.4327 417.0339 L834.4327 420.0339 Z" clip-path="url(#clipPath2)" stroke="none"/>
      <path fill="none" d="M812.4279 429.9996 L812.4279 408.0151" clip-path="url(#clipPath2)"/>
      <path d="M812.4279 437.9996 L817.4279 425.9996 L812.4279 428.9996 L807.4279 425.9996 Z" clip-path="url(#clipPath2)" stroke="none"/>
      <path fill="none" d="M783.464 451.5 L764.656 451.5" clip-path="url(#clipPath2)"/>
      <path d="M756.656 451.5 L768.656 456.5 L765.656 451.5 L768.656 446.5 Z" clip-path="url(#clipPath2)" stroke="none"/>
      <path fill="none" d="M841.312 394.5 L860.616 394.5" clip-path="url(#clipPath2)"/>
      <path d="M868.616 394.5 L856.616 389.5 L859.616 394.5 L856.616 399.5 Z" clip-path="url(#clipPath2)" stroke="none"/>
    </g>
  </g>
</svg>
