<?xml version="1.0" encoding="UTF-8"?><svg xmlns="http://www.w3.org/2000/svg" xmlns:xlink="http://www.w3.org/1999/xlink" fill-opacity="1" color-rendering="auto" color-interpolation="auto" text-rendering="auto" stroke="black" stroke-linecap="square" width="542" stroke-miterlimit="10" shape-rendering="auto" stroke-opacity="1" fill="black" stroke-dasharray="none" font-weight="normal" stroke-width="1" height="72" font-family="'Dialog'" font-style="normal" stroke-linejoin="miter" font-size="12px" stroke-dashoffset="0" image-rendering="auto">
  <!--Generated by ySVG 2.5-->
  <defs id="genericDefs"/>
  <g>
    <defs id="defs1">
      <clipPath clipPathUnits="userSpaceOnUse" id="clipPath1">
        <path d="M0 0 L542 0 L542 72 L0 72 L0 0 Z"/>
      </clipPath>
      <clipPath clipPathUnits="userSpaceOnUse" id="clipPath2">
        <path d="M398 284 L940 284 L940 356 L398 356 L398 284 Z"/>
      </clipPath>
    </defs>
    <g text-rendering="geometricPrecision" stroke-miterlimit="1.45" shape-rendering="geometricPrecision" transform="matrix(1,0,0,1,-398,-284)" stroke-linecap="butt">
      <path fill="none" d="M434.9478 340.9997 L439.7697 331.6406 L449.7971 334.8489 L446.5887 324.8215 L455.9478 319.9997 L446.5887 315.1779 L449.7971 305.1505 L439.7697 308.3589 L434.9478 298.9998 L430.1261 308.3589 L420.0986 305.1505 L423.307 315.1779 L413.9478 319.9997 L423.307 324.8215 L420.0986 334.8489 L430.1261 331.6406 Z" fill-rule="evenodd" clip-path="url(#clipPath2)"/>
    </g>
    <g text-rendering="geometricPrecision" stroke-miterlimit="1.45" shape-rendering="geometricPrecision" font-family="sans-serif" transform="matrix(1,0,0,1,-398,-284)" stroke-linecap="butt">
      <text x="426.103" xml:space="preserve" y="324.1543" clip-path="url(#clipPath2)" stroke="none">#1</text>
    </g>
    <g fill="rgb(153,204,0)" text-rendering="geometricPrecision" shape-rendering="geometricPrecision" transform="matrix(1,0,0,1,-398,-284)" stroke="rgb(153,204,0)">
      <path d="M463.2043 309 L610.2043 309 L610.2043 331 L463.2043 331 Z" stroke="none" clip-path="url(#clipPath2)"/>
    </g>
    <g text-rendering="geometricPrecision" stroke-miterlimit="1.45" shape-rendering="geometricPrecision" transform="matrix(1,0,0,1,-398,-284)" stroke-linecap="butt">
      <path fill="none" d="M463.2043 309 L610.2043 309 L610.2043 331 L463.2043 331 Z" clip-path="url(#clipPath2)"/>
      <text x="517.6232" xml:space="preserve" y="324.1543" clip-path="url(#clipPath2)" font-family="sans-serif" stroke="none">1, 2, 3</text>
    </g>
    <g fill="rgb(51,204,204)" text-rendering="geometricPrecision" shape-rendering="geometricPrecision" transform="matrix(1,0,0,1,-398,-284)" stroke="rgb(51,204,204)">
      <path d="M615.2043 309 L664.2043 309 L664.2043 331 L615.2043 331 Z" stroke="none" clip-path="url(#clipPath2)"/>
    </g>
    <g text-rendering="geometricPrecision" stroke-miterlimit="1.45" shape-rendering="geometricPrecision" transform="matrix(1,0,0,1,-398,-284)" stroke-linecap="butt">
      <path fill="none" d="M615.2043 309 L664.2043 309 L664.2043 331 L615.2043 331 Z" clip-path="url(#clipPath2)"/>
      <text x="635.8869" xml:space="preserve" y="324.1543" clip-path="url(#clipPath2)" font-family="sans-serif" stroke="none">1</text>
    </g>
    <g text-rendering="geometricPrecision" stroke-miterlimit="1.45" shape-rendering="geometricPrecision" transform="matrix(1,0,0,1,-398,-284)" stroke-linecap="butt">
      <path fill="none" d="M669.2043 309 L718.2043 309 L718.2043 331 L669.2043 331 Z" clip-path="url(#clipPath2)"/>
      <text x="689.8869" xml:space="preserve" y="324.1543" clip-path="url(#clipPath2)" font-family="sans-serif" stroke="none">1</text>
    </g>
    <g fill="rgb(51,204,204)" text-rendering="geometricPrecision" shape-rendering="geometricPrecision" transform="matrix(1,0,0,1,-398,-284)" stroke="rgb(51,204,204)">
      <path d="M723.2043 309 L821.2043 309 L821.2043 331 L723.2043 331 Z" stroke="none" clip-path="url(#clipPath2)"/>
    </g>
    <g text-rendering="geometricPrecision" stroke-miterlimit="1.45" shape-rendering="geometricPrecision" transform="matrix(1,0,0,1,-398,-284)" stroke-linecap="butt">
      <path fill="none" d="M723.2043 309 L821.2043 309 L821.2043 331 L723.2043 331 Z" clip-path="url(#clipPath2)"/>
      <text x="760.7551" xml:space="preserve" y="324.1543" clip-path="url(#clipPath2)" font-family="sans-serif" stroke="none">2, 3</text>
    </g>
    <g text-rendering="geometricPrecision" stroke-miterlimit="1.45" shape-rendering="geometricPrecision" transform="matrix(1,0,0,1,-398,-284)" stroke-linecap="butt">
      <path fill="none" d="M826.2043 309 L924.2043 309 L924.2043 331 L826.2043 331 Z" clip-path="url(#clipPath2)"/>
      <text x="863.7551" xml:space="preserve" y="324.1543" clip-path="url(#clipPath2)" font-family="sans-serif" stroke="none">2, 3</text>
    </g>
  </g>
</svg>
